<?xml version="1.0" standalone="no"?>
<!DOCTYPE svg PUBLIC "-//W3C//DTD SVG 20010904//EN"
 "http://www.w3.org/TR/2001/REC-SVG-20010904/DTD/svg10.dtd">
<svg version="1.0" xmlns="http://www.w3.org/2000/svg"
 width="600.000000pt" height="400.000000pt" viewBox="0 0 600.000000 400.000000"
 preserveAspectRatio="xMidYMid meet">
<g transform="translate(0.000000,400.000000) scale(0.100000,-0.100000)"
fill="#000000" stroke="none">
<path d="M1768 2631 c12 -7 12 -12 0 -30 -7 -12 -21 -24 -30 -27 -10 -3 -18
-10 -18 -16 0 -6 -3 -8 -7 -5 -3 4 -15 0 -25 -10 -10 -9 -18 -13 -18 -9 0 4
-9 2 -21 -4 -15 -9 -24 -8 -37 2 -15 12 -16 11 -4 -4 14 -18 9 -38 -10 -38 -5
0 -23 -9 -39 -21 -16 -11 -29 -17 -29 -13 0 3 -6 1 -14 -5 -7 -6 -22 -8 -32
-5 -17 6 -17 5 1 -10 19 -16 19 -16 -7 -6 -23 8 -26 7 -21 -7 4 -11 3 -14 -6
-9 -6 4 -10 3 -9 -3 2 -6 -8 -17 -22 -24 -14 -8 -24 -20 -22 -27 3 -11 0 -11
-13 0 -13 11 -14 10 -9 -5 6 -14 4 -16 -6 -10 -8 5 -11 4 -6 -3 4 -6 14 -8 24
-5 12 5 10 -1 -8 -23 -15 -17 -18 -23 -6 -14 18 14 19 13 10 -5 -6 -11 -10
-98 -9 -193 0 -173 0 -174 25 -194 14 -11 24 -24 23 -28 -1 -5 4 -11 13 -14 9
-4 12 -2 8 5 -4 7 -1 10 7 7 8 -3 14 -10 14 -15 0 -6 4 -15 9 -20 5 -5 6 -3 2
5 -4 6 -3 12 1 12 14 0 48 -27 49 -39 1 -6 2 -13 3 -16 0 -3 10 -1 22 5 17 10
20 9 17 -6 -2 -9 4 -19 12 -21 13 -4 13 -3 0 6 -19 14 -9 14 25 1 14 -5 23
-14 20 -20 -3 -5 2 -10 13 -10 11 0 30 -9 44 -19 13 -11 40 -27 59 -35 18 -9
26 -14 16 -11 -11 3 -15 1 -12 -6 4 -5 14 -9 23 -7 10 1 23 -1 29 -5 7 -4 22
-3 33 3 18 9 20 21 20 98 l0 88 203 108 c111 60 205 113 208 119 4 5 7 -31 8
-79 l1 -89 -210 -119 c-115 -66 -210 -123 -210 -128 0 -11 18 -10 25 2 4 6 11
8 16 5 5 -4 9 -2 9 4 0 6 18 16 40 22 22 7 40 16 40 20 0 15 62 41 85 37 12
-3 22 0 22 7 0 7 -10 11 -21 8 -20 -3 -20 -3 -1 5 11 5 26 7 33 4 7 -2 12 2
10 9 -2 9 6 14 24 14 21 -1 25 2 16 13 -6 7 -7 12 -2 11 5 -1 21 3 36 11 23
11 30 11 45 -1 9 -8 14 -9 10 -2 -4 7 0 16 10 22 14 8 15 11 3 11 -11 0 -8 5
8 18 19 15 22 27 23 85 1 37 5 70 10 73 5 3 14 15 19 27 10 20 10 20 -3 5 -18
-23 -26 -23 -24 1 0 11 5 17 9 15 4 -3 8 -1 8 5 0 5 -5 11 -12 13 -6 2 -8 10
-4 17 5 7 15 10 25 7 13 -5 13 -4 -2 8 -13 10 -17 26 -16 60 2 39 4 44 17 33
13 -10 14 -9 2 10 -8 12 -18 19 -23 16 -5 -3 -4 4 2 14 6 11 7 23 4 27 -12 12
-14 48 -3 61 8 9 8 15 0 20 -10 6 -14 0 -11 -20 1 -5 -5 -2 -13 8 -8 10 -17
18 -20 18 -24 -3 -30 0 -16 10 12 8 12 10 -5 8 -33 -2 -41 1 -25 11 12 8 11
10 -6 10 -12 0 -29 10 -38 23 l-17 22 11 -23 11 -23 -28 17 c-15 10 -42 29
-60 42 -30 22 -49 29 -80 31 -7 1 -13 6 -13 12 0 5 4 8 9 4 5 -3 12 -1 15 4 4
6 -6 8 -23 6 -18 -2 -34 2 -41 11 -7 8 -20 14 -29 14 -9 0 -12 3 -6 8 6 4 11
13 13 21 2 11 0 12 -10 4 -19 -16 -30 -16 -39 -1 -7 10 -11 10 -17 0 -5 -7
-19 -11 -33 -8 -13 2 -31 -2 -39 -8 -13 -9 -13 -9 -2 6 15 18 9 38 -11 38 -8
0 -8 -3 1 -9z m52 -154 l0 -113 -107 -60 -107 -60 -98 55 c-53 30 -95 57 -93
60 5 5 398 231 403 231 1 0 2 -51 2 -113z m242 -5 l205 -118 -96 -52 c-53 -29
-100 -53 -104 -54 -5 0 -56 26 -113 58 l-104 59 0 113 c0 61 1 112 3 112 2 0
96 -53 209 -118z m-182 -152 c6 0 22 -7 36 -16 19 -13 22 -19 13 -31 -9 -11
-9 -17 0 -26 10 -9 11 -8 6 4 -8 21 20 32 46 19 10 -6 19 -13 19 -16 0 -3 -5
-2 -12 2 -7 4 -8 3 -4 -4 4 -6 13 -9 20 -6 7 3 19 -3 27 -12 12 -16 12 -17 -3
-11 -11 4 -17 2 -15 -6 1 -7 -4 -11 -11 -9 -8 1 -11 -2 -6 -9 5 -9 2 -10 -9
-6 -10 4 -16 2 -14 -6 1 -7 -4 -11 -10 -9 -7 1 -22 -7 -34 -19 -16 -16 -23
-18 -35 -8 -8 6 -17 9 -21 5 -3 -3 0 -6 8 -6 8 0 4 -6 -9 -16 -23 -16 -47 -10
-39 10 3 7 -1 13 -8 13 -7 0 -11 -6 -8 -14 3 -7 -2 -13 -12 -13 -9 0 -13 4
-10 10 4 6 -1 7 -11 3 -13 -5 -15 -3 -9 7 5 9 4 11 -4 6 -15 -10 -103 42 -95
56 4 6 -1 8 -12 4 -11 -3 -26 -1 -34 4 -10 6 -11 10 -3 10 7 0 22 8 33 18 11
9 25 18 30 18 6 1 12 3 15 4 8 4 24 7 43 9 13 1 14 3 4 9 -9 6 0 14 28 27 22
10 40 22 40 28 0 5 11 2 25 -7 13 -9 29 -16 35 -16z m-380 -51 l90 -51 2 -92
c0 -50 1 -98 0 -107 -1 -9 41 -40 113 -82 l115 -68 0 -89 c0 -50 -2 -90 -4
-90 -3 0 -21 9 -40 21 -19 11 -41 17 -47 13 -7 -4 -9 -3 -6 3 4 6 -62 50 -158
104 l-165 94 0 198 c0 108 2 197 5 197 3 0 46 -23 95 -51z m769 -51 l1 -103
-78 -41 c-42 -23 -131 -69 -197 -104 -66 -35 -126 -67 -132 -73 -10 -7 -13 12
-13 90 l0 100 108 61 c131 73 306 171 309 172 0 0 2 -46 2 -102z m-506 -98
l57 -32 0 -99 0 -98 -35 23 c-19 13 -64 41 -100 62 l-65 38 0 94 0 94 43 -25
c23 -13 68 -39 100 -57z m76 -3 c8 -10 7 -14 -4 -14 -8 0 -15 6 -15 14 0 7 2
13 4 13 2 0 9 -6 15 -13z m395 -248 c-3 -5 -10 -7 -15 -3 -5 3 -7 10 -3 15 3
5 10 7 15 3 5 -3 7 -10 3 -15z"/>
<path d="M1686 2491 c-4 -5 3 -7 14 -4 23 6 26 13 6 13 -8 0 -17 -4 -20 -9z"/>
<path d="M1485 2350 c-3 -6 1 -7 9 -4 18 7 21 14 7 14 -6 0 -13 -4 -16 -10z"/>
<path d="M1585 2300 c3 -5 8 -10 11 -10 2 0 4 5 4 10 0 6 -5 10 -11 10 -5 0
-7 -4 -4 -10z"/>
<path d="M1922 2511 c-11 -6 -10 -10 4 -15 9 -3 19 -4 22 -1 3 3 0 5 -7 5 -7
0 -9 5 -6 10 7 12 4 12 -13 1z"/>
<path d="M2040 2466 c0 -2 8 -10 18 -17 15 -13 16 -12 3 4 -13 16 -21 21 -21
13z"/>
<path d="M2000 2431 c0 -6 4 -13 10 -16 6 -3 7 1 4 9 -7 18 -14 21 -14 7z"/>
<path d="M2079 2413 c-13 -16 -12 -17 4 -4 9 7 17 15 17 17 0 8 -8 3 -21 -13z"/>
<path d="M2052 2294 c10 -10 20 -16 22 -13 3 3 -5 11 -17 18 -21 13 -21 12 -5
-5z"/>
<path d="M1424 2272 c2 -9 10 -17 19 -17 24 0 22 18 -1 26 -15 6 -19 4 -18 -9z"/>
<path d="M1530 2196 c0 -2 8 -10 18 -17 15 -13 16 -12 3 4 -13 16 -21 21 -21
13z"/>
<path d="M1684 1899 c-3 -6 -2 -15 3 -20 5 -5 9 -1 9 11 0 23 -2 24 -12 9z"/>
<path d="M2216 2264 c-9 -8 -16 -13 -16 -9 0 3 -13 -3 -29 -14 -15 -11 -31
-18 -35 -14 -3 3 -6 4 -6 1 0 -3 8 -12 17 -19 10 -9 14 -9 10 -2 -8 13 30 39
51 35 6 -2 12 2 12 8 0 5 5 10 11 10 5 0 7 -6 3 -12 -4 -7 -3 -9 1 -5 12 10
15 37 5 37 -5 0 -16 -7 -24 -16z"/>
<path d="M2109 2218 c0 -2 -2 -11 -4 -21 -3 -15 -1 -16 11 -6 7 6 11 15 8 20
-5 9 -13 12 -15 7z"/>
<path d="M2143 2175 c0 -8 4 -12 9 -9 5 3 6 10 3 15 -9 13 -12 11 -12 -6z"/>
<path d="M2056 2168 c3 -4 11 -5 19 -1 21 7 19 12 -4 10 -11 0 -18 -5 -15 -9z"/>
<path d="M2020 2160 c-9 -6 -10 -10 -3 -10 6 0 15 5 18 10 8 12 4 12 -15 0z"/>
<path d="M1975 2132 c3 -3 0 -11 -7 -19 -8 -11 -7 -12 5 -7 21 7 29 31 11 31
-8 0 -12 -3 -9 -5z"/>
<path d="M1916 2098 c3 -4 11 -5 19 -1 21 7 19 12 -4 10 -11 0 -18 -5 -15 -9z"/>
<path d="M1707 2119 c7 -7 15 -10 18 -7 3 3 -2 9 -12 12 -14 6 -15 5 -6 -5z"/>
<path d="M1710 1996 c0 -2 7 -7 16 -10 8 -3 12 -2 9 4 -6 10 -25 14 -25 6z"/>
<path d="M1810 2630 c-9 -6 -10 -10 -3 -10 6 0 15 5 18 10 8 12 4 12 -15 0z"/>
<path d="M2021 2546 c-10 -12 -8 -14 14 -12 15 2 29 -3 35 -13 5 -9 10 -11 10
-4 0 6 -5 15 -10 18 -6 4 -7 12 -4 18 5 8 3 8 -7 0 -16 -15 -33 -17 -24 -3 9
15 -1 12 -14 -4z"/>
<path d="M1460 2465 c-14 -8 -20 -14 -14 -15 5 0 19 7 30 15 24 18 16 19 -16
0z"/>
<path d="M3005 2390 c-13 -6 -15 -9 -5 -9 8 0 22 4 30 9 18 12 2 12 -25 0z"/>
<path d="M2620 2370 c12 -8 10 -10 -10 -10 -14 0 -42 -11 -61 -25 -20 -13 -39
-22 -42 -19 -2 3 -8 -7 -11 -22 -4 -14 -10 -24 -13 -20 -4 3 -13 -8 -20 -26
-11 -26 -16 -30 -23 -18 -6 10 -7 2 -3 -24 4 -27 2 -41 -8 -47 -8 -5 -9 -9 -4
-9 6 0 11 -17 12 -37 0 -52 8 -79 23 -75 6 1 9 -2 5 -8 -4 -6 5 -23 19 -37 14
-14 23 -29 20 -34 -3 -5 3 -6 12 -2 13 5 15 3 9 -7 -6 -9 -4 -11 4 -6 7 5 21
0 32 -10 24 -22 183 -34 202 -15 14 14 30 15 22 1 -3 -6 1 -7 9 -4 9 3 13 10
10 15 -5 8 12 13 44 12 10 -1 10 2 1 13 -8 10 -7 12 10 9 11 -2 24 1 27 7 4 7
2 8 -4 4 -7 -4 -12 -2 -12 4 0 6 7 13 15 16 8 4 12 11 8 18 -4 6 1 5 11 -3 16
-13 17 -12 11 12 -8 31 1 35 22 10 10 -13 10 -9 -2 15 -10 21 -12 32 -4 32 7
0 9 10 5 28 -5 20 -4 23 4 12 8 -12 10 -11 10 7 0 12 -5 23 -11 25 -5 2 -11
28 -11 57 -1 30 -4 47 -7 38 -5 -13 -8 -12 -17 8 -10 20 -9 23 5 18 9 -2 8 1
-4 8 -11 7 -36 24 -55 39 -19 15 -51 32 -70 38 -48 15 -180 25 -160 12z m135
-31 c98 -26 155 -100 155 -199 0 -63 -29 -130 -66 -155 -14 -9 -22 -21 -18
-27 4 -6 3 -8 -3 -5 -5 3 -27 0 -49 -8 -63 -23 -143 -19 -199 10 -27 13 -53
21 -59 18 -6 -3 -8 -3 -4 2 4 4 -2 21 -14 38 -12 17 -27 51 -33 76 -42 162
116 297 290 250z"/>
<path d="M2591 2295 c-36 -31 -52 -77 -53 -148 -1 -92 47 -166 123 -188 56
-17 118 8 147 60 48 84 19 239 -52 282 -47 29 -126 26 -165 -6z m133 -20 c-4
-14 -3 -16 4 -6 15 21 47 -3 67 -51 16 -39 20 -95 10 -145 -5 -29 -41 -84 -48
-76 -4 3 -7 2 -7 -4 0 -5 -6 -10 -12 -11 -7 0 -24 -4 -37 -8 -19 -5 -22 -4
-16 6 6 10 4 12 -9 7 -19 -8 -56 8 -56 24 0 6 5 7 12 3 7 -4 8 -3 4 5 -6 9
-11 9 -21 1 -11 -9 -13 -6 -9 12 2 13 2 17 -2 11 -3 -7 -11 -13 -17 -13 -5 0
-7 3 -4 7 4 3 2 12 -4 19 -33 39 -16 203 20 189 12 -5 13 -4 4 6 -23 23 23 50
79 47 42 -3 47 -5 42 -23z"/>
<path d="M2615 2060 c10 -11 20 -20 23 -20 3 0 -3 9 -13 20 -10 11 -20 20 -23
20 -3 0 3 -9 13 -20z"/>
<path d="M3548 2373 c7 -3 16 -2 19 1 4 3 -2 6 -13 5 -11 0 -14 -3 -6 -6z"/>
<path d="M3983 2366 c-13 -7 -20 -16 -16 -19 10 -11 -6 -8 -30 5 -19 10 -20 9
-10 -4 11 -12 9 -17 -10 -25 -12 -6 -30 -9 -40 -7 -9 1 -15 -2 -11 -7 3 -5 0
-9 -7 -9 -7 0 -9 -3 -6 -6 4 -4 13 -1 22 6 26 21 17 2 -14 -29 -16 -16 -31
-28 -34 -25 -2 3 -3 -9 -1 -26 4 -37 -10 -39 -26 -2 -19 46 -34 72 -42 72 -5
0 -8 5 -8 11 0 6 9 8 23 3 12 -3 19 -3 15 1 -4 4 -20 9 -37 11 -16 2 -48 13
-70 25 -37 19 -60 22 -196 23 -85 1 -160 -2 -167 -6 -8 -6 -3 -7 12 -2 22 6
23 5 12 -9 -11 -13 -10 -17 6 -29 10 -7 22 -22 26 -33 13 -33 7 -277 -7 -294
-9 -12 -9 -13 1 -7 6 4 12 3 12 -2 0 -14 -28 -23 -35 -12 -4 6 -3 15 1 21 4 7
-2 7 -17 -1 -13 -7 -21 -10 -17 -6 3 4 -10 23 -30 43 -21 19 -30 32 -22 28 8
-4 -1 7 -20 24 -19 18 -30 30 -24 27 13 -6 27 21 19 34 -3 5 -1 11 5 15 5 3
10 0 11 -7 0 -7 7 7 15 32 14 45 12 98 -6 129 -5 9 -10 12 -10 8 0 -4 -11 3
-25 17 -16 16 -31 23 -42 19 -9 -4 -14 -2 -11 3 4 5 -43 9 -113 9 -95 0 -122
-3 -129 -15 -6 -10 -3 -21 12 -37 12 -13 18 -29 14 -38 -3 -9 -2 -14 3 -10 5
3 9 -53 9 -130 0 -74 3 -139 7 -144 3 -6 -9 -15 -27 -20 -18 -5 -26 -10 -18
-10 13 -1 13 -2 0 -11 -11 -8 -7 -9 15 -4 17 4 33 12 37 18 4 6 8 89 8 184 l0
172 -25 0 c-14 0 -25 5 -25 10 0 6 42 10 108 10 157 -1 207 -27 204 -112 -1
-38 -18 -65 -52 -83 l-30 -15 61 -79 c60 -80 97 -105 141 -99 l23 3 3 181 2
181 -32 9 c-24 6 1 9 96 12 149 3 216 -11 270 -58 46 -41 59 -78 54 -154 -5
-80 -38 -128 -113 -162 -48 -22 -64 -24 -237 -24 -137 -1 -192 2 -208 12 -11
7 -43 46 -71 86 -39 56 -56 72 -75 72 -23 0 -24 -3 -24 -69 0 -72 14 -99 46
-87 9 4 14 1 12 -6 -3 -7 -30 -11 -79 -9 -40 1 -81 -3 -89 -9 -11 -7 10 -10
71 -10 65 0 90 4 99 15 10 12 10 18 0 30 -7 8 -19 15 -27 15 -11 0 -14 13 -12
55 2 52 3 54 20 39 10 -9 21 -25 24 -35 4 -12 11 -16 18 -12 7 4 5 -2 -3 -13
-8 -10 -11 -16 -6 -12 9 8 72 -51 69 -64 -2 -4 0 -7 5 -6 4 1 27 -4 51 -11 31
-9 63 -10 113 -3 40 5 71 5 75 0 3 -5 11 -7 18 -4 8 3 51 6 97 7 54 1 92 7
110 17 23 14 29 14 44 1 10 -8 15 -9 11 -2 -9 15 2 45 14 37 5 -3 6 -10 3 -16
-4 -6 -2 -8 4 -4 6 3 9 15 7 26 -2 12 2 20 10 20 17 0 34 30 27 49 -3 9 0 11
8 6 10 -6 12 -4 7 8 -3 8 0 18 8 20 9 4 12 -2 10 -18 -1 -13 4 -26 12 -29 8
-3 19 -19 24 -35 6 -17 16 -28 23 -25 12 5 43 -23 39 -35 -1 -3 5 -5 14 -3 8
2 12 -1 9 -7 -4 -5 2 -10 11 -11 10 0 60 -3 111 -6 68 -4 92 -3 92 6 0 7 7 10
16 6 8 -3 12 -2 9 4 -9 14 9 12 24 -2 10 -11 11 -10 6 3 -4 10 -1 20 6 25 8 5
10 3 4 -6 -5 -9 -4 -11 4 -6 6 4 9 12 6 17 -4 5 0 9 7 9 16 0 48 35 48 51 0 7
6 6 17 -2 15 -13 15 -12 5 8 -14 25 -15 36 -4 29 13 -8 14 122 2 160 -9 26 -9
38 0 48 8 10 8 16 0 21 -6 4 -9 1 -8 -6 6 -27 -21 -17 -39 14 -12 20 -34 38
-54 45 -19 6 -24 10 -11 8 12 -2 20 -1 17 4 -2 4 -24 10 -47 14 -61 10 -58 10
-116 2 -37 -5 -52 -4 -47 4 7 12 7 12 -22 -4z m170 -30 c114 -41 170 -151 133
-263 -62 -186 -355 -193 -430 -11 -71 169 114 339 297 274z m-923 -206 c0 -5
-5 -10 -11 -10 -5 0 -7 5 -4 10 3 6 8 10 11 10 2 0 4 -4 4 -10z"/>
<path d="M3988 2305 c-14 -8 -36 -35 -48 -61 -43 -88 -11 -220 65 -270 38 -25
95 -28 135 -7 53 27 75 75 75 158 0 83 -24 138 -75 173 -39 26 -110 29 -152 7z
m132 -21 c0 4 13 -6 29 -21 33 -32 50 -73 29 -73 -10 0 -10 -3 1 -9 18 -12 16
-91 -4 -147 -8 -21 -14 -36 -15 -31 0 4 -11 0 -25 -9 -14 -9 -44 -18 -66 -19
-23 -1 -36 1 -29 5 8 5 3 10 -13 14 -14 3 -29 15 -32 26 -3 11 -10 20 -15 20
-5 0 -7 7 -3 15 3 10 0 15 -8 13 -10 -2 -13 6 -11 27 2 19 0 25 -6 17 -13 -19
-7 89 6 114 6 12 9 24 6 26 -2 3 2 11 11 18 8 7 15 9 15 6 0 -4 7 0 16 9 9 8
24 13 33 11 9 -3 23 -1 31 4 10 6 20 4 32 -7 10 -9 18 -13 18 -9z"/>
<path d="M4075 2261 c-3 -5 -2 -12 3 -15 5 -3 9 1 9 9 0 17 -3 19 -12 6z"/>
<path d="M4107 2263 c-3 -5 6 -9 20 -10 19 -1 22 1 12 8 -17 11 -26 11 -32 2z"/>
<path d="M4070 1996 c0 -2 7 -7 16 -10 8 -3 12 -2 9 4 -6 10 -25 14 -25 6z"/>
<path d="M2885 2340 c-3 -6 1 -7 9 -4 18 7 21 14 7 14 -6 0 -13 -4 -16 -10z"/>
<path d="M3060 2225 l0 -98 42 6 c53 7 78 35 78 88 0 50 -33 88 -82 96 l-38 6
0 -98z m79 39 c24 -31 26 -61 6 -88 -9 -11 -15 -14 -15 -7 0 8 -5 7 -16 -4
-27 -26 -40 -3 -27 45 5 22 6 40 2 40 -14 0 -11 28 4 33 21 9 25 8 46 -19z"/>
<path d="M3110 2256 c0 -2 7 -6 15 -10 8 -3 15 -1 15 4 0 6 -7 10 -15 10 -8 0
-15 -2 -15 -4z"/>
<path d="M3470 2159 c0 -90 4 -170 8 -177 11 -17 72 -26 117 -18 143 27 168
258 34 326 -21 11 -66 23 -99 27 l-60 6 0 -164z m55 131 c3 -5 13 -10 21 -10
8 0 12 4 9 10 -3 6 1 7 9 4 9 -3 13 -10 10 -15 -3 -5 2 -6 10 -3 9 3 16 1 16
-5 0 -6 7 -8 15 -5 8 4 15 1 15 -6 0 -6 4 -9 8 -6 7 4 44 -47 48 -66 1 -5 3
-11 4 -15 1 -5 2 -11 2 -14 -1 -3 -2 -27 -3 -53 -2 -30 -8 -50 -17 -53 -9 -4
-10 -8 -3 -12 7 -4 3 -13 -9 -24 -11 -9 -20 -12 -20 -7 0 6 -10 1 -22 -10 -19
-18 -31 -21 -67 -16 -25 3 -46 7 -47 9 -3 3 -7 269 -4 282 1 6 2 13 1 18 -2
11 17 9 24 -3z"/>
<path d="M3510 2260 c-8 -5 -12 -12 -9 -15 4 -3 12 1 19 10 14 17 11 19 -10 5z"/>
<path d="M3800 2291 c0 -10 19 -25 25 -20 1 2 -3 10 -11 17 -8 7 -14 8 -14 3z"/>
<path d="M2312 2200 c0 -14 2 -19 5 -12 2 6 2 18 0 25 -3 6 -5 1 -5 -13z"/>
<path d="M2410 2200 c0 -5 5 -10 11 -10 5 0 7 5 4 10 -3 6 -8 10 -11 10 -2 0
-4 -4 -4 -10z"/>
<path d="M3246 2111 c-14 -15 -15 -21 -4 -27 7 -4 10 -3 5 1 -4 5 0 17 10 27
9 10 14 18 11 18 -3 0 -13 -9 -22 -19z"/>
<path d="M2946 2082 c-2 -4 -1 -14 4 -22 7 -11 9 -9 7 8 -1 24 -3 26 -11 14z"/>
<path d="M2225 2040 c-4 -6 -11 -8 -16 -5 -5 4 -9 1 -9 -4 0 -15 11 -13 34 4
11 8 15 15 9 15 -7 0 -15 -5 -18 -10z"/>
<path d="M2294 2039 c-3 -6 -2 -15 4 -21 6 -6 12 -6 17 3 6 8 4 10 -5 4 -10
-6 -12 -4 -7 8 7 19 2 23 -9 6z"/>
<path d="M2166 2014 c-11 -8 -16 -14 -10 -14 13 0 39 18 34 24 -3 2 -14 -2
-24 -10z"/>
<path d="M2426 2012 c-3 -5 1 -9 9 -9 8 0 12 4 9 9 -3 4 -7 8 -9 8 -2 0 -6 -4
-9 -8z"/>
<path d="M2110 1985 c-14 -8 -20 -14 -14 -15 5 0 19 7 30 15 24 18 16 19 -16
0z"/>
<path d="M2045 1951 c-3 -5 0 -13 6 -17 8 -4 9 -3 5 4 -4 7 -3 12 3 12 5 0 13
-4 16 -10 3 -5 11 -10 18 -10 6 0 2 7 -9 15 -23 17 -31 18 -39 6z"/>
<path d="M2110 1950 c8 -5 20 -10 25 -10 6 0 3 5 -5 10 -8 5 -19 10 -25 10 -5
0 -3 -5 5 -10z"/>
<path d="M3860 1956 c0 -2 8 -10 18 -17 15 -13 16 -12 3 4 -13 16 -21 21 -21
13z"/>
<path d="M2010 1936 c0 -2 7 -7 16 -10 8 -3 12 -2 9 4 -6 10 -25 14 -25 6z"/>
<path d="M2485 1930 c-3 -6 1 -7 9 -4 18 7 21 14 7 14 -6 0 -13 -4 -16 -10z"/>
<path d="M3680 1932 c0 -5 7 -9 15 -9 8 0 12 4 9 9 -3 4 -9 8 -15 8 -5 0 -9
-4 -9 -8z"/>
<path d="M1989 1923 c0 -5 -2 -18 -3 -30 -1 -12 1 -20 4 -18 8 5 11 55 4 55
-2 0 -4 -3 -5 -7z"/>
<path d="M2154 1922 c3 -5 0 -13 -6 -15 -9 -4 -10 -6 -1 -6 17 -1 25 16 12 25
-7 4 -9 3 -5 -4z"/>
<path d="M1930 1890 c-9 -6 -10 -10 -3 -10 6 0 15 5 18 10 8 12 4 12 -15 0z"/>
<path d="M1925 1790 c-3 -6 1 -7 9 -4 18 7 21 14 7 14 -6 0 -13 -4 -16 -10z"/>
<path d="M1980 1690 c-9 -6 -10 -10 -3 -10 6 0 15 5 18 10 8 12 4 12 -15 0z"/>
</g>
</svg>
